<svg width="126" height="28" viewBox="0 0 126 28" fill="none" xmlns="http://www.w3.org/2000/svg">
<path d="M9.6844 5.37964L3.84279 19.1182C3.71658 19.4608 3.51826 19.7313 3.24781 19.9296C2.9954 20.1099 2.71594 20.2 2.40943 20.2C1.92263 20.2 1.56204 20.0648 1.32765 19.7944C1.09327 19.5239 0.976074 19.1904 0.976074 18.7937C0.976074 18.6314 1.00312 18.4602 1.05721 18.2799L7.79129 2.10726C7.93552 1.74667 8.15188 1.46721 8.44035 1.26888C8.74686 1.07055 9.07139 0.989421 9.41395 1.02548C9.73849 1.02548 10.036 1.12464 10.3064 1.32297C10.5949 1.50327 10.8022 1.7647 10.9284 2.10726L17.5814 17.9553C17.6715 18.1897 17.7166 18.4061 17.7166 18.6044C17.7166 19.0912 17.5543 19.4788 17.2298 19.7673C16.9233 20.0558 16.5807 20.2 16.2021 20.2C15.8776 20.2 15.5801 20.1009 15.3097 19.9025C15.0572 19.7042 14.8589 19.4338 14.7147 19.0912L8.90011 5.54191L9.6844 5.37964ZM4.68117 15.8188L6.16862 12.7087H13.4706L13.9845 15.8188H4.68117Z" fill="#232F3E"/>
<path d="M27.7683 5.32555C29.0304 5.32555 30.1572 5.65009 31.1488 6.29916C32.1585 6.93019 32.9518 7.80463 33.5288 8.92247C34.1237 10.0403 34.4212 11.3384 34.4212 12.8169C34.4212 14.2953 34.1237 15.6025 33.5288 16.7383C32.9518 17.8562 32.1675 18.7396 31.1759 19.3887C30.2023 20.0197 29.1025 20.3352 27.8765 20.3352C27.1553 20.3352 26.4792 20.2181 25.8481 19.9837C25.2171 19.7493 24.6582 19.4518 24.1714 19.0912C23.7026 18.7306 23.333 18.37 23.0625 18.0094C22.8101 17.6308 22.6839 17.3153 22.6839 17.0629L23.5223 16.7113V23.824C23.5223 24.2928 23.3691 24.6804 23.0625 24.9869C22.756 25.3114 22.3684 25.4737 21.8996 25.4737C21.4309 25.4737 21.0432 25.3204 20.7367 25.0139C20.4302 24.7074 20.277 24.3108 20.277 23.824V7.24571C20.277 6.77694 20.4302 6.38931 20.7367 6.0828C21.0432 5.75827 21.4309 5.596 21.8996 5.596C22.3684 5.596 22.756 5.75827 23.0625 6.0828C23.3691 6.38931 23.5223 6.77694 23.5223 7.24571V8.57089L23.0625 8.32749C23.0625 8.09311 23.1888 7.81365 23.4412 7.48911C23.6936 7.14655 24.0361 6.813 24.4689 6.48847C24.9016 6.1459 25.3974 5.86644 25.9563 5.65009C26.5333 5.43373 27.1372 5.32555 27.7683 5.32555ZM27.3626 8.30045C26.5693 8.30045 25.8752 8.49877 25.2802 8.89543C24.6852 9.29208 24.2164 9.83297 23.8739 10.5181C23.5493 11.1852 23.3871 11.9515 23.3871 12.8169C23.3871 13.6643 23.5493 14.4395 23.8739 15.1427C24.2164 15.8278 24.6852 16.3687 25.2802 16.7654C25.8752 17.162 26.5693 17.3604 27.3626 17.3604C28.1559 17.3604 28.8411 17.162 29.418 16.7654C30.013 16.3687 30.4727 15.8278 30.7973 15.1427C31.1398 14.4395 31.3111 13.6643 31.3111 12.8169C31.3111 11.9515 31.1398 11.1852 30.7973 10.5181C30.4727 9.83297 30.013 9.29208 29.418 8.89543C28.8411 8.49877 28.1559 8.30045 27.3626 8.30045Z" fill="#232F3E"/>
<path d="M49.6454 5.32555C50.1141 5.32555 50.5018 5.47881 50.8083 5.78531C51.1148 6.09181 51.268 6.48847 51.268 6.97527V18.4151C51.268 18.8839 51.1148 19.2805 50.8083 19.605C50.5018 19.9116 50.1141 20.0648 49.6454 20.0648C49.1766 20.0648 48.789 19.9116 48.4825 19.605C48.176 19.2805 48.0227 18.8839 48.0227 18.4151V17.0899L48.6177 17.3333C48.6177 17.5677 48.4915 17.8562 48.2391 18.1987C47.9866 18.5233 47.6441 18.8478 47.2114 19.1723C46.7787 19.4969 46.2648 19.7763 45.6698 20.0107C45.0929 20.2271 44.4619 20.3352 43.7767 20.3352C42.5327 20.3352 41.4058 20.0197 40.3962 19.3887C39.3865 18.7396 38.5842 17.8562 37.9892 16.7383C37.4123 15.6025 37.1238 14.3043 37.1238 12.8439C37.1238 11.3655 37.4123 10.0674 37.9892 8.94952C38.5842 7.81365 39.3775 6.93019 40.3691 6.29916C41.3608 5.65009 42.4606 5.32555 43.6685 5.32555C44.4438 5.32555 45.156 5.44275 45.8051 5.67713C46.4541 5.91152 47.0131 6.20901 47.4818 6.5696C47.9686 6.93019 48.3382 7.2998 48.5906 7.67842C48.8611 8.03902 48.9963 8.34552 48.9963 8.59794L48.0227 8.94952V6.97527C48.0227 6.5065 48.176 6.11886 48.4825 5.81236C48.789 5.48782 49.1766 5.32555 49.6454 5.32555ZM44.1824 17.3604C44.9757 17.3604 45.6698 17.162 46.2648 16.7654C46.8598 16.3687 47.3196 15.8278 47.6441 15.1427C47.9866 14.4576 48.1579 13.6913 48.1579 12.8439C48.1579 11.9785 47.9866 11.2032 47.6441 10.5181C47.3196 9.83297 46.8598 9.29208 46.2648 8.89543C45.6698 8.49877 44.9757 8.30045 44.1824 8.30045C43.4071 8.30045 42.722 8.49877 42.127 8.89543C41.532 9.29208 41.0633 9.83297 40.7207 10.5181C40.3962 11.2032 40.2339 11.9785 40.2339 12.8439C40.2339 13.6913 40.3962 14.4576 40.7207 15.1427C41.0633 15.8278 41.532 16.3687 42.127 16.7654C42.722 17.162 43.4071 17.3604 44.1824 17.3604Z" fill="#232F3E"/>
<path d="M56.9455 20.0648C56.4767 20.0648 56.0891 19.9116 55.7826 19.605C55.4761 19.2805 55.3228 18.8839 55.3228 18.4151V7.24571C55.3228 6.77694 55.4761 6.38931 55.7826 6.0828C56.0891 5.75827 56.4767 5.596 56.9455 5.596C57.4143 5.596 57.8019 5.75827 58.1084 6.0828C58.4149 6.38931 58.5682 6.77694 58.5682 7.24571V9.78789L58.3788 7.97591C58.5772 7.5432 58.8296 7.16458 59.1361 6.84005C59.4606 6.49748 59.8212 6.21802 60.2179 6.00167C60.6145 5.76728 61.0382 5.596 61.489 5.48782C61.9397 5.37964 62.3904 5.32555 62.8412 5.32555C63.3821 5.32555 63.8328 5.47881 64.1934 5.78531C64.572 6.09181 64.7613 6.45241 64.7613 6.86709C64.7613 7.46207 64.6081 7.89478 64.3016 8.16523C63.9951 8.41764 63.6615 8.54385 63.3009 8.54385C62.9584 8.54385 62.6429 8.48074 62.3544 8.35454C62.0839 8.22833 61.7684 8.16523 61.4078 8.16523C61.0833 8.16523 60.7497 8.24636 60.4072 8.40863C60.0826 8.55286 59.7761 8.78725 59.4877 9.11178C59.2172 9.43632 58.9919 9.84198 58.8116 10.3288C58.6493 10.7976 58.5682 11.3565 58.5682 12.0055V18.4151C58.5682 18.8839 58.4149 19.2805 58.1084 19.605C57.8019 19.9116 57.4143 20.0648 56.9455 20.0648Z" fill="#232F3E"/>
<path d="M69.2127 20.0648C68.7439 20.0648 68.3563 19.9116 68.0498 19.605C67.7433 19.2805 67.59 18.8839 67.59 18.4151V7.24571C67.59 6.77694 67.7433 6.38931 68.0498 6.0828C68.3563 5.75827 68.7439 5.596 69.2127 5.596C69.6815 5.596 70.0691 5.75827 70.3756 6.0828C70.6821 6.38931 70.8354 6.77694 70.8354 7.24571V9.78789L70.646 7.97591C70.8444 7.5432 71.0968 7.16458 71.4033 6.84005C71.7278 6.49748 72.0884 6.21802 72.4851 6.00167C72.8817 5.76728 73.3054 5.596 73.7562 5.48782C74.2069 5.37964 74.6577 5.32555 75.1084 5.32555C75.6493 5.32555 76.1 5.47881 76.4606 5.78531C76.8392 6.09181 77.0285 6.45241 77.0285 6.86709C77.0285 7.46207 76.8753 7.89478 76.5688 8.16523C76.2623 8.41764 75.9287 8.54385 75.5682 8.54385C75.2256 8.54385 74.9101 8.48074 74.6216 8.35454C74.3512 8.22833 74.0356 8.16523 73.675 8.16523C73.3505 8.16523 73.017 8.24636 72.6744 8.40863C72.3499 8.55286 72.0434 8.78725 71.7549 9.11178C71.4844 9.43632 71.2591 9.84198 71.0788 10.3288C70.9165 10.7976 70.8354 11.3565 70.8354 12.0055V18.4151C70.8354 18.8839 70.6821 19.2805 70.3756 19.605C70.0691 19.9116 69.6815 20.0648 69.2127 20.0648Z" fill="#232F3E"/>
<path d="M86.065 20.3352C84.5325 20.3352 83.1983 20.0197 82.0624 19.3887C80.9446 18.7396 80.0792 17.8652 79.4661 16.7654C78.8712 15.6656 78.5737 14.4215 78.5737 13.0332C78.5737 11.4106 78.8982 10.0313 79.5473 8.89543C80.2144 7.74153 81.0798 6.85808 82.1436 6.24507C83.2073 5.63206 84.3342 5.32555 85.5241 5.32555C86.4436 5.32555 87.3091 5.51487 88.1204 5.89349C88.9498 6.27211 89.6799 6.79497 90.311 7.46207C90.942 8.11114 91.4378 8.86838 91.7984 9.73381C92.1771 10.5992 92.3664 11.5187 92.3664 12.4923C92.3483 12.9251 92.1771 13.2766 91.8525 13.5471C91.528 13.8175 91.1494 13.9527 90.7167 13.9527H80.3857L79.5743 11.2483H89.4996L88.9047 11.7892V11.059C88.8686 10.5361 88.6793 10.0674 88.3367 9.65267C88.0122 9.23799 87.5975 8.91346 87.0927 8.67907C86.6059 8.42665 86.083 8.30045 85.5241 8.30045C84.9832 8.30045 84.4784 8.37257 84.0096 8.5168C83.5409 8.66104 83.1352 8.90444 82.7926 9.24701C82.4501 9.58957 82.1796 10.0493 81.9813 10.6263C81.783 11.2032 81.6838 11.9334 81.6838 12.8169C81.6838 13.7905 81.8821 14.6198 82.2788 15.305C82.6935 15.9721 83.2163 16.4859 83.8474 16.8465C84.4964 17.1891 85.1815 17.3604 85.9027 17.3604C86.5698 17.3604 87.1017 17.3063 87.4984 17.1981C87.895 17.0899 88.2105 16.9637 88.4449 16.8195C88.6973 16.6572 88.9227 16.522 89.121 16.4138C89.4456 16.2515 89.7521 16.1704 90.0405 16.1704C90.4372 16.1704 90.7617 16.3056 91.0141 16.5761C91.2846 16.8465 91.4198 17.162 91.4198 17.5226C91.4198 18.0094 91.1674 18.4511 90.6626 18.8478C90.1938 19.2445 89.5357 19.596 88.6883 19.9025C87.8409 20.191 86.9665 20.3352 86.065 20.3352Z" fill="#232F3E"/>
<path d="M99.2585 18.4151C99.2585 18.8839 99.0962 19.2805 98.7717 19.605C98.4652 19.9116 98.0775 20.0648 97.6088 20.0648C97.158 20.0648 96.7794 19.9116 96.4729 19.605C96.1664 19.2805 96.0131 18.8839 96.0131 18.4151V1.70159C96.0131 1.23282 96.1664 0.845184 96.4729 0.538679C96.7974 0.214146 97.1941 0.0518799 97.6629 0.0518799C98.1316 0.0518799 98.5102 0.214146 98.7987 0.538679C99.1052 0.845184 99.2585 1.23282 99.2585 1.70159V18.4151Z" fill="#232F3E"/>
<path d="M109.256 7.86121C108.529 7.86121 107.965 7.67873 107.564 7.31376C107.188 6.92447 107 6.37702 107 5.67142V5.05099C107 4.34539 107.188 3.81011 107.564 3.44515C107.965 3.05585 108.529 2.86121 109.256 2.86121H109.744C110.471 2.86121 111.023 3.05585 111.398 3.44515C111.799 3.81011 112 4.34539 112 5.05099V5.67142C112 6.37702 111.799 6.92447 111.398 7.31376C111.023 7.67873 110.471 7.86121 109.744 7.86121H109.256Z" fill="#FFA500"/>
<path fill-rule="evenodd" clip-rule="evenodd" d="M30.9999 19.8277C40.0414 22.3751 52.4248 23.9459 66.0842 23.9459C93.7694 23.9459 116.213 17.4935 116.213 9.53403C116.213 7.18181 114.253 4.96126 110.776 2.99996C120.06 5.6157 125.821 9.26131 125.821 13.2937C125.821 21.2531 103.377 27.7056 75.6922 27.7056C56.1886 27.7056 39.2865 24.5032 30.9999 19.8277Z" fill="#232F3E"/>
</svg>
